<svg width="1200" height="800" viewBox="0 0 1200 800" fill="none" xmlns="http://www.w3.org/2000/svg"><rect width="1200" height="800" rx="40" fill="#0A0F1E"/><circle cx="200" cy="200" r="280" fill="#10B981" fill-opacity="0.18"/><circle cx="1000" cy="650" r="260" fill="#059669" fill-opacity="0.18"/><rect x="90" y="90" width="1020" height="620" rx="28" fill="#0F1629" stroke="#1E2A45" stroke-width="4"/><!-- Left decorative panel --><rect x="90" y="90" width="420" height="620" rx="28" fill="#0B1220"/><!-- Left panel decoration --><circle cx="300" cy="400" r="120" fill="#10B981" fill-opacity="0.12"/><rect x="140" y="200" width="320" height="16" rx="8" fill="#1F2937"/><rect x="160" y="228" width="280" height="10" rx="5" fill="#1F2937"/><rect x="160" y="250" width="240" height="10" rx="5" fill="#1F2937"/><!-- Left panel logo area --><circle cx="300" cy="380" r="60" fill="#10B981" fill-opacity="0.2" stroke="#10B981" stroke-width="2"/><rect x="270" y="370" width="60" height="10" rx="5" fill="#10B981"/><!-- Dots pattern --><circle cx="160" cy="550" r="6" fill="#10B981" fill-opacity="0.5"/><circle cx="185" cy="550" r="6" fill="#10B981" fill-opacity="0.3"/><circle cx="210" cy="550" r="6" fill="#10B981" fill-opacity="0.2"/><!-- Auth form card --><rect x="560" y="160" width="500" height="480" rx="28" fill="#111827" stroke="#1F2937" stroke-width="2"/><!-- Logo/brand at top of form --><circle cx="810" cy="215" r="28" fill="#10B981" fill-opacity="0.3"/><rect x="783" y="207" width="54" height="16" rx="8" fill="#10B981"/><!-- Form title --><rect x="630" y="265" width="360" height="24" rx="12" fill="#1F2937"/><!-- Email field --><rect x="610" y="320" width="380" height="18" rx="9" fill="#374151"/><rect x="610" y="350" width="380" height="48" rx="14" fill="#1F2937" stroke="#10B981" stroke-width="2"/><!-- Password field --><rect x="610" y="418" width="180" height="18" rx="9" fill="#374151"/><rect x="610" y="448" width="380" height="48" rx="14" fill="#1F2937" stroke="#1F2937" stroke-width="2"/><!-- Remember / forgot row --><rect x="610" y="515" width="18" height="18" rx="5" fill="#10B981"/><rect x="638" y="519" width="100" height="10" rx="5" fill="#374151"/><rect x="860" y="519" width="130" height="10" rx="5" fill="#10B981"/><!-- Submit button --><rect x="610" y="550" width="380" height="52" rx="26" fill="#10B981"/><!-- Divider --><rect x="610" y="618" width="160" height="2" rx="1" fill="#1F2937"/><rect x="850" y="618" width="140" height="2" rx="1" fill="#1F2937"/><rect x="775" y="611" width="50" height="16" rx="8" fill="#374151"/><!-- Social login --><rect x="610" y="640" width="380" height="48" rx="14" fill="#1F2937" stroke="#1F2937" stroke-width="2"/><text x="810" y="290" fill="#fff" font-size="34" font-family="Arial" font-weight="700" text-anchor="middle">Sign In</text><text x="810" y="580" fill="#fff" font-size="22" font-family="Arial" font-weight="600" text-anchor="middle">Continue</text><text x="300" y="160" fill="#10B981" font-size="38" font-family="Arial" font-weight="700" text-anchor="middle">Auth Flow</text><text x="300" y="198" fill="#94A3B8" font-size="20" font-family="Arial" text-anchor="middle">Login • Register • Reset</text></svg>
