<svg width="1200" height="800" viewBox="0 0 1200 800" fill="none" xmlns="http://www.w3.org/2000/svg"><rect width="1200" height="800" rx="40" fill="#0A0F1E"/><circle cx="600" cy="200" r="300" fill="#8B5CF6" fill-opacity="0.25"/><circle cx="100" cy="750" r="200" fill="#7C3AED" fill-opacity="0.2"/><rect x="90" y="90" width="1020" height="620" rx="28" fill="#0F1629" stroke="#1E2A45" stroke-width="4"/><!-- Top Nav --><rect x="90" y="90" width="1020" height="60" rx="28" fill="#111827"/><!-- Nav dots --><circle cx="140" cy="120" r="8" fill="#8B5CF6"/><rect x="160" y="113" width="80" height="14" rx="7" fill="#1F2937"/><rect x="260" y="113" width="60" height="14" rx="7" fill="#1F2937"/><rect x="340" y="113" width="60" height="14" rx="7" fill="#1F2937"/><rect x="970" y="108" width="110" height="26" rx="13" fill="#8B5CF6"/><!-- Hero Section --><rect x="300" y="200" width="600" height="30" rx="15" fill="#1F2937"/><rect x="200" y="250" width="800" height="60" rx="10" fill="#1E2A45"/><rect x="350" y="330" width="500" height="20" rx="10" fill="#1F2937"/><rect x="400" y="360" width="400" height="20" rx="10" fill="#1F2937"/><!-- CTA Buttons --><rect x="380" y="410" width="180" height="50" rx="25" fill="#8B5CF6"/><rect x="580" y="410" width="180" height="50" rx="25" fill="#1F2937" stroke="#8B5CF6" stroke-width="2"/><!-- Feature Cards Row --><rect x="120" y="510" width="290" height="160" rx="20" fill="#111827" stroke="#1F2937" stroke-width="2"/><rect x="455" y="510" width="290" height="160" rx="20" fill="#111827" stroke="#1F2937" stroke-width="2"/><rect x="790" y="510" width="290" height="160" rx="20" fill="#111827" stroke="#1F2937" stroke-width="2"/><!-- Card icons --><rect x="145" y="535" width="40" height="40" rx="12" fill="#8B5CF6" fill-opacity="0.3"/><rect x="480" y="535" width="40" height="40" rx="12" fill="#8B5CF6" fill-opacity="0.3"/><rect x="815" y="535" width="40" height="40" rx="12" fill="#8B5CF6" fill-opacity="0.3"/><!-- Card text lines --><rect x="145" y="588" width="180" height="14" rx="7" fill="#1F2937"/><rect x="145" y="610" width="240" height="10" rx="5" fill="#1F2937"/><rect x="145" y="628" width="210" height="10" rx="5" fill="#1F2937"/><rect x="480" y="588" width="180" height="14" rx="7" fill="#1F2937"/><rect x="480" y="610" width="240" height="10" rx="5" fill="#1F2937"/><rect x="480" y="628" width="210" height="10" rx="5" fill="#1F2937"/><rect x="815" y="588" width="180" height="14" rx="7" fill="#1F2937"/><rect x="815" y="610" width="240" height="10" rx="5" fill="#1F2937"/><rect x="815" y="628" width="210" height="10" rx="5" fill="#1F2937"/><text x="600" y="290" fill="#fff" font-size="48" font-family="Arial" font-weight="700" text-anchor="middle">Landing Page</text><text x="600" y="395" fill="#94A3B8" font-size="22" font-family="Arial" text-anchor="middle">Hero • Features • CTA</text></svg>
