<svg width="1200" height="800" viewBox="0 0 1200 800" fill="none" xmlns="http://www.w3.org/2000/svg"><rect width="1200" height="800" rx="40" fill="#111827"/><circle cx="1050" cy="100" r="240" fill="#F59E0B" fill-opacity="0.22"/><circle cx="150" cy="720" r="220" fill="#D97706" fill-opacity="0.18"/><rect x="90" y="90" width="1020" height="620" rx="28" fill="#0F1629" stroke="#1F2937" stroke-width="4"/><!-- Top nav --><rect x="90" y="90" width="1020" height="56" rx="28" fill="#111827"/><!-- Nav logo --><rect x="125" y="109" width="90" height="20" rx="10" fill="#F59E0B"/><!-- Nav links --><rect x="250" y="113" width="70" height="12" rx="6" fill="#374151"/><rect x="340" y="113" width="70" height="12" rx="6" fill="#374151"/><rect x="430" y="113" width="70" height="12" rx="6" fill="#374151"/><!-- Search bar --><rect x="700" y="107" width="200" height="32" rx="16" fill="#1F2937"/><!-- Featured post --><rect x="120" y="175" width="680" height="320" rx="20" fill="#1F2937"/><!-- Featured image area --><rect x="120" y="175" width="680" height="200" rx="20" fill="#1A1F35"/><!-- Featured image gradient overlay --><rect x="120" y="300" width="680" height="75" rx="0" fill="url(#grad1)"/><!-- Tags row --><rect x="145" y="195" width="80" height="24" rx="12" fill="#F59E0B"/><rect x="238" y="195" width="90" height="24" rx="12" fill="#1F2937"/><!-- Featured text --><rect x="145" y="388" width="500" height="20" rx="10" fill="#374151"/><rect x="145" y="415" width="580" height="14" rx="7" fill="#1F2937"/><rect x="145" y="435" width="540" height="14" rx="7" fill="#1F2937"/><!-- Meta info --><circle cx="160" cy="472" r="14" fill="#374151"/><rect x="182" y="466" width="100" height="12" rx="6" fill="#374151"/><rect x="300" y="466" width="80" height="12" rx="6" fill="#374151"/><!-- Right sidebar --><rect x="830" y="175" width="260" height="320" rx="20" fill="#111827" stroke="#1F2937" stroke-width="2"/><!-- Sidebar - Recent posts --><rect x="855" y="200" width="140" height="16" rx="8" fill="#374151"/><rect x="855" y="235" width="210" height="14" rx="7" fill="#1F2937"/><rect x="855" y="253" width="190" height="10" rx="5" fill="#1F2937"/><rect x="855" y="280" width="210" height="14" rx="7" fill="#1F2937"/><rect x="855" y="298" width="190" height="10" rx="5" fill="#1F2937"/><rect x="855" y="325" width="210" height="14" rx="7" fill="#1F2937"/><rect x="855" y="343" width="190" height="10" rx="5" fill="#1F2937"/><!-- Sidebar tags cloud --><rect x="855" y="380" width="140" height="16" rx="8" fill="#374151"/><rect x="855" y="408" width="70" height="22" rx="11" fill="#F59E0B" fill-opacity="0.25" stroke="#F59E0B" stroke-width="1"/><rect x="935" y="408" width="80" height="22" rx="11" fill="#1F2937"/><rect x="855" y="440" width="90" height="22" rx="11" fill="#1F2937"/><rect x="955" y="440" width="60" height="22" rx="11" fill="#F59E0B" fill-opacity="0.25" stroke="#F59E0B" stroke-width="1"/><!-- Post cards row --><rect x="120" y="525" width="300" height="160" rx="16" fill="#111827" stroke="#1F2937" stroke-width="2"/><rect x="440" y="525" width="300" height="160" rx="16" fill="#111827" stroke="#1F2937" stroke-width="2"/><rect x="760" y="525" width="330" height="160" rx="16" fill="#111827" stroke="#1F2937" stroke-width="2"/><!-- Post card image placeholders --><rect x="120" y="525" width="300" height="70" rx="16" fill="#1A1F35"/><rect x="440" y="525" width="300" height="70" rx="16" fill="#1A1F35"/><rect x="760" y="525" width="330" height="70" rx="16" fill="#1A1F35"/><!-- Post card tag --><rect x="140" y="534" width="60" height="20" rx="10" fill="#F59E0B"/><rect x="460" y="534" width="60" height="20" rx="10" fill="#D97706"/><rect x="780" y="534" width="60" height="20" rx="10" fill="#F59E0B"/><!-- Post card text lines --><rect x="140" y="610" width="220" height="14" rx="7" fill="#374151"/><rect x="140" y="632" width="260" height="10" rx="5" fill="#1F2937"/><rect x="140" y="650" width="240" height="10" rx="5" fill="#1F2937"/><rect x="460" y="610" width="220" height="14" rx="7" fill="#374151"/><rect x="460" y="632" width="260" height="10" rx="5" fill="#1F2937"/><rect x="460" y="650" width="240" height="10" rx="5" fill="#1F2937"/><rect x="780" y="610" width="220" height="14" rx="7" fill="#374151"/><rect x="780" y="632" width="270" height="10" rx="5" fill="#1F2937"/><rect x="780" y="650" width="250" height="10" rx="5" fill="#1F2937"/><text x="145" y="360" fill="#fff" font-size="38" font-family="Arial" font-weight="700">Blog Platform</text><text x="855" y="185" fill="#F59E0B" font-size="20" font-family="Arial" font-weight="600">Trending</text></svg>
