<svg width="1200" height="800" viewBox="0 0 1200 800" fill="none" xmlns="http://www.w3.org/2000/svg"><rect width="1200" height="800" rx="40" fill="#0F172A"/><circle cx="1050" cy="80" r="260" fill="#3B82F6" fill-opacity="0.22"/><circle cx="150" cy="720" r="200" fill="#1D4ED8" fill-opacity="0.2"/><rect x="90" y="90" width="1020" height="620" rx="28" fill="#111827" stroke="#1F2937" stroke-width="4"/><!-- Sidebar --><rect x="90" y="90" width="220" height="620" rx="28" fill="#0B1220"/><!-- Sidebar items --><rect x="115" y="130" width="170" height="36" rx="10" fill="#3B82F6" fill-opacity="0.3"/><rect x="115" y="180" width="170" height="28" rx="8" fill="#1F2937"/><rect x="115" y="220" width="170" height="28" rx="8" fill="#1F2937"/><rect x="115" y="260" width="170" height="28" rx="8" fill="#1F2937"/><rect x="115" y="300" width="170" height="28" rx="8" fill="#1F2937"/><rect x="115" y="360" width="40" height="8" rx="4" fill="#374151"/><!-- Sidebar section 2 --><rect x="115" y="380" width="170" height="28" rx="8" fill="#1F2937"/><rect x="115" y="420" width="170" height="28" rx="8" fill="#1F2937"/><rect x="115" y="460" width="170" height="28" rx="8" fill="#1F2937"/><!-- Main content area --><!-- Top bar --><rect x="350" y="110" width="720" height="50" rx="14" fill="#0B1220"/><!-- Stats cards --><rect x="350" y="190" width="160" height="100" rx="16" fill="#0B1220" stroke="#1F2937" stroke-width="2"/><rect x="530" y="190" width="160" height="100" rx="16" fill="#0B1220" stroke="#1F2937" stroke-width="2"/><rect x="710" y="190" width="160" height="100" rx="16" fill="#0B1220" stroke="#1F2937" stroke-width="2"/><rect x="890" y="190" width="180" height="100" rx="16" fill="#0B1220" stroke="#1F2937" stroke-width="2"/><!-- Stat values --><rect x="370" y="215" width="80" height="22" rx="6" fill="#3B82F6"/><rect x="370" y="248" width="120" height="12" rx="6" fill="#1F2937"/><rect x="370" y="266" width="100" height="10" rx="5" fill="#1F2937"/><rect x="550" y="215" width="80" height="22" rx="6" fill="#3B82F6"/><rect x="550" y="248" width="120" height="12" rx="6" fill="#1F2937"/><rect x="730" y="215" width="80" height="22" rx="6" fill="#3B82F6"/><rect x="730" y="248" width="120" height="12" rx="6" fill="#1F2937"/><rect x="910" y="215" width="80" height="22" rx="6" fill="#3B82F6"/><rect x="910" y="248" width="120" height="12" rx="6" fill="#1F2937"/><!-- Chart area --><rect x="350" y="320" width="440" height="240" rx="20" fill="#0B1220" stroke="#1F2937" stroke-width="2"/><!-- Chart bars --><rect x="390" y="440" width="40" height="100" rx="6" fill="#3B82F6" fill-opacity="0.6"/><rect x="450" y="400" width="40" height="140" rx="6" fill="#3B82F6" fill-opacity="0.8"/><rect x="510" y="420" width="40" height="120" rx="6" fill="#3B82F6" fill-opacity="0.7"/><rect x="570" y="380" width="40" height="160" rx="6" fill="#3B82F6"/><rect x="630" y="430" width="40" height="110" rx="6" fill="#3B82F6" fill-opacity="0.65"/><rect x="690" y="390" width="40" height="150" rx="6" fill="#3B82F6" fill-opacity="0.9"/><!-- Table area --><rect x="810" y="320" width="260" height="240" rx="20" fill="#0B1220" stroke="#1F2937" stroke-width="2"/><rect x="830" y="350" width="220" height="28" rx="6" fill="#1F2937"/><rect x="830" y="390" width="220" height="28" rx="6" fill="#1F2937"/><rect x="830" y="430" width="220" height="28" rx="6" fill="#1F2937"/><rect x="830" y="470" width="220" height="28" rx="6" fill="#1F2937"/><rect x="830" y="510" width="220" height="28" rx="6" fill="#1F2937"/><!-- Bottom table --><rect x="350" y="590" width="720" height="100" rx="16" fill="#0B1220" stroke="#1F2937" stroke-width="2"/><rect x="380" y="615" width="660" height="18" rx="6" fill="#1F2937"/><rect x="380" y="645" width="660" height="18" rx="6" fill="#1F2937"/><text x="140" y="160" fill="#3B82F6" font-size="26" font-family="Arial" font-weight="700">SaaS</text><text x="370" y="150" fill="#fff" font-size="36" font-family="Arial" font-weight="700">SaaS Dashboard</text><text x="370" y="185" fill="#94A3B8" font-size="20" font-family="Arial">Stats • Charts • Tables</text></svg>
