<svg width="1200" height="800" viewBox="0 0 1200 800" fill="none" xmlns="http://www.w3.org/2000/svg">
  <rect width="1200" height="800" rx="40" fill="#0A0F1E"/>
  <circle cx="1050" cy="90" r="260" fill="#06B6D4" fill-opacity="0.22"/>
  <circle cx="150" cy="720" r="230" fill="#0891B2" fill-opacity="0.18"/>

  <rect x="90" y="90" width="1020" height="620" rx="28" fill="#0F1629" stroke="#1E2A45" stroke-width="4"/>

  <!-- Top nav -->
  <rect x="90" y="90" width="1020" height="56" rx="28" fill="#111827"/>
  <rect x="125" y="109" width="130" height="18" rx="9" fill="#06B6D4"/>
  <rect x="580" y="112" width="60" height="12" rx="6" fill="#374151"/>
  <rect x="660" y="112" width="60" height="12" rx="6" fill="#374151"/>
  <rect x="740" y="112" width="60" height="12" rx="6" fill="#374151"/>
  <rect x="960" y="107" width="120" height="32" rx="16" fill="#06B6D4"/>

  <!-- Section label -->
  <rect x="120" y="170" width="160" height="16" rx="8" fill="#374151"/>

  <!-- === STAT CARDS ROW === -->
  <rect x="120" y="200" width="220" height="110" rx="18" fill="#111827" stroke="#1E2A45" stroke-width="2"/>
  <rect x="360" y="200" width="220" height="110" rx="18" fill="#111827" stroke="#1E2A45" stroke-width="2"/>
  <rect x="600" y="200" width="220" height="110" rx="18" fill="#111827" stroke="#1E2A45" stroke-width="2"/>
  <rect x="840" y="200" width="240" height="110" rx="18" fill="#111827" stroke="#1E2A45" stroke-width="2"/>

  <!-- Stat card 1 - revenue -->
  <rect x="140" y="218" width="100" height="14" rx="7" fill="#374151"/>
  <rect x="140" y="244" width="140" height="28" rx="8" fill="#06B6D4"/>
  <rect x="140" y="282" width="80" height="10" rx="5" fill="#06B6D4" fill-opacity="0.4"/>
  <!-- Trend arrow -->
  <rect x="280" y="218" width="40" height="20" rx="10" fill="#06B6D4" fill-opacity="0.2"/>
  <rect x="290" y="224" width="20" height="8" rx="4" fill="#06B6D4"/>

  <!-- Stat card 2 - users -->
  <rect x="380" y="218" width="100" height="14" rx="7" fill="#374151"/>
  <rect x="380" y="244" width="140" height="28" rx="8" fill="#06B6D4"/>
  <rect x="380" y="282" width="80" height="10" rx="5" fill="#06B6D4" fill-opacity="0.4"/>
  <rect x="520" y="218" width="40" height="20" rx="10" fill="#06B6D4" fill-opacity="0.2"/>
  <rect x="530" y="224" width="20" height="8" rx="4" fill="#06B6D4"/>

  <!-- Stat card 3 - orders -->
  <rect x="620" y="218" width="100" height="14" rx="7" fill="#374151"/>
  <rect x="620" y="244" width="140" height="28" rx="8" fill="#06B6D4"/>
  <rect x="620" y="282" width="80" height="10" rx="5" fill="#06B6D4" fill-opacity="0.4"/>
  <rect x="760" y="218" width="40" height="20" rx="10" fill="#06B6D4" fill-opacity="0.2"/>
  <rect x="770" y="224" width="20" height="8" rx="4" fill="#06B6D4"/>

  <!-- Stat card 4 - growth with mini sparkline -->
  <rect x="860" y="218" width="100" height="14" rx="7" fill="#374151"/>
  <rect x="860" y="244" width="140" height="28" rx="8" fill="#06B6D4"/>
  <!-- Mini sparkline -->
  <path d="M860 295 L880 285 L905 290 L930 278 L955 282 L980 270 L1000 265 L1020 258 L1050 250" stroke="#06B6D4" stroke-width="2.5" stroke-linecap="round" stroke-linejoin="round" fill="none"/>

  <!-- === PRICING CARDS ROW === -->
  <rect x="120" y="330" width="16" height="16" rx="4" fill="#374151"/>
  <rect x="144" y="332" width="130" height="12" rx="6" fill="#374151"/>

  <rect x="120" y="360" width="290" height="300" rx="20" fill="#111827" stroke="#1E2A45" stroke-width="2"/>
  <rect x="430" y="340" width="310" height="320" rx="20" fill="#06B6D4" fill-opacity="0.08" stroke="#06B6D4" stroke-width="2"/>
  <!-- Popular badge -->
  <rect x="524" y="328" width="120" height="26" rx="13" fill="#06B6D4"/>
  <rect x="548" y="334" width="74" height="14" rx="7" fill="#fff" fill-opacity="0.5"/>
  <rect x="760" y="360" width="300" height="300" rx="20" fill="#111827" stroke="#1E2A45" stroke-width="2"/>

  <!-- Pricing card 1 - Starter -->
  <rect x="145" y="380" width="100" height="16" rx="8" fill="#374151"/>
  <rect x="145" y="408" width="80" height="34" rx="8" fill="#06B6D4" fill-opacity="0.3"/>
  <rect x="235" y="420" width="50" height="16" rx="5" fill="#374151"/>
  <!-- Features list -->
  <circle cx="160" cy="462" r="6" fill="#06B6D4" fill-opacity="0.6"/>
  <rect x="176" y="457" width="180" height="10" rx="5" fill="#374151"/>
  <circle cx="160" cy="484" r="6" fill="#06B6D4" fill-opacity="0.6"/>
  <rect x="176" y="479" width="160" height="10" rx="5" fill="#374151"/>
  <circle cx="160" cy="506" r="6" fill="#374151"/>
  <rect x="176" y="501" width="170" height="10" rx="5" fill="#1F2937"/>
  <circle cx="160" cy="528" r="6" fill="#374151"/>
  <rect x="176" y="523" width="150" height="10" rx="5" fill="#1F2937"/>
  <!-- CTA button starter -->
  <rect x="145" y="590" width="240" height="44" rx="22" fill="#1F2937" stroke="#06B6D4" stroke-width="2"/>

  <!-- Pricing card 2 - Pro (highlighted) -->
  <rect x="455" y="365" width="100" height="16" rx="8" fill="#06B6D4"/>
  <rect x="455" y="393" width="80" height="34" rx="8" fill="#06B6D4"/>
  <rect x="545" y="405" width="50" height="16" rx="5" fill="#06B6D4" fill-opacity="0.6"/>
  <circle cx="470" cy="450" r="6" fill="#06B6D4"/>
  <rect x="486" y="445" width="200" height="10" rx="5" fill="#374151"/>
  <circle cx="470" cy="472" r="6" fill="#06B6D4"/>
  <rect x="486" y="467" width="200" height="10" rx="5" fill="#374151"/>
  <circle cx="470" cy="494" r="6" fill="#06B6D4"/>
  <rect x="486" y="489" width="180" height="10" rx="5" fill="#374151"/>
  <circle cx="470" cy="516" r="6" fill="#06B6D4"/>
  <rect x="486" y="511" width="190" height="10" rx="5" fill="#374151"/>
  <circle cx="470" cy="538" r="6" fill="#06B6D4"/>
  <rect x="486" y="533" width="160" height="10" rx="5" fill="#374151"/>
  <!-- CTA button pro -->
  <rect x="455" y="578" width="260" height="44" rx="22" fill="#06B6D4"/>

  <!-- Pricing card 3 - Enterprise -->
  <rect x="785" y="380" width="120" height="16" rx="8" fill="#374151"/>
  <rect x="785" y="408" width="100" height="34" rx="8" fill="#06B6D4" fill-opacity="0.3"/>
  <rect x="895" y="420" width="50" height="16" rx="5" fill="#374151"/>
  <circle cx="800" cy="462" r="6" fill="#06B6D4" fill-opacity="0.6"/>
  <rect x="816" y="457" width="200" height="10" rx="5" fill="#374151"/>
  <circle cx="800" cy="484" r="6" fill="#06B6D4" fill-opacity="0.6"/>
  <rect x="816" y="479" width="180" height="10" rx="5" fill="#374151"/>
  <circle cx="800" cy="506" r="6" fill="#06B6D4" fill-opacity="0.6"/>
  <rect x="816" y="501" width="200" height="10" rx="5" fill="#374151"/>
  <circle cx="800" cy="528" r="6" fill="#06B6D4" fill-opacity="0.6"/>
  <rect x="816" y="523" width="170" height="10" rx="5" fill="#374151"/>
  <circle cx="800" cy="550" r="6" fill="#06B6D4" fill-opacity="0.6"/>
  <rect x="816" y="545" width="190" height="10" rx="5" fill="#374151"/>
  <!-- CTA button enterprise -->
  <rect x="785" y="595" width="250" height="44" rx="22" fill="#1F2937" stroke="#06B6D4" stroke-width="2"/>

  <!-- Card labels -->
  <text x="600" y="155" fill="#fff" font-size="38" font-family="Arial" font-weight="700" text-anchor="middle">Card Layouts</text>
  <text x="600" y="183" fill="#94A3B8" font-size="20" font-family="Arial" text-anchor="middle">Stat Cards • Pricing Cards • Feature Cards</text>
  <text x="145" y="396" fill="#94A3B8" font-size="22" font-family="Arial">Starter</text>
  <text x="455" y="381" fill="#fff" font-size="22" font-family="Arial" font-weight="700">Pro</text>
  <text x="785" y="396" fill="#94A3B8" font-size="22" font-family="Arial">Enterprise</text>
</svg>
