<svg width="1200" height="800" viewBox="0 0 1200 800" fill="none" xmlns="http://www.w3.org/2000/svg"><rect width="1200" height="800" rx="40" fill="#0F172A"/><circle cx="1020" cy="90" r="250" fill="#EC4899" fill-opacity="0.22"/><circle cx="180" cy="720" r="220" fill="#BE185D" fill-opacity="0.18"/><rect x="90" y="90" width="1020" height="620" rx="28" fill="#111827" stroke="#1F2937" stroke-width="4"/><!-- Top nav/header --><rect x="90" y="90" width="1020" height="60" rx="28" fill="#0B1220"/><!-- Logo --><rect x="125" y="111" width="100" height="18" rx="9" fill="#EC4899"/><!-- Search bar --><rect x="340" y="107" width="380" height="36" rx="18" fill="#1F2937"/><!-- Cart icon --><rect x="960" y="110" width="56" height="30" rx="15" fill="#EC4899" fill-opacity="0.25" stroke="#EC4899" stroke-width="2"/><!-- Filter sidebar --><rect x="90" y="180" width="190" height="510" rx="0" fill="#0B1220"/><!-- Filter sections --><rect x="115" y="200" width="140" height="16" rx="8" fill="#374151"/><rect x="115" y="232" width="18" height="18" rx="5" fill="#EC4899"/><rect x="142" y="236" width="80" height="10" rx="5" fill="#374151"/><rect x="115" y="260" width="18" height="18" rx="5" fill="#1F2937"/><rect x="142" y="264" width="70" height="10" rx="5" fill="#374151"/><rect x="115" y="288" width="18" height="18" rx="5" fill="#1F2937"/><rect x="142" y="292" width="90" height="10" rx="5" fill="#374151"/><rect x="115" y="330" width="140" height="16" rx="8" fill="#374151"/><!-- Price slider --><rect x="115" y="360" width="140" height="6" rx="3" fill="#1F2937"/><rect x="115" y="360" width="90" height="6" rx="3" fill="#EC4899"/><circle cx="205" cy="363" r="8" fill="#EC4899"/><!-- Color swatches --><rect x="115" y="395" width="140" height="16" rx="8" fill="#374151"/><circle cx="130" cy="430" r="12" fill="#EC4899"/><circle cx="158" cy="430" r="12" fill="#8B5CF6"/><circle cx="186" cy="430" r="12" fill="#3B82F6"/><circle cx="214" cy="430" r="12" fill="#10B981"/><circle cx="242" cy="430" r="12" fill="#1F2937" stroke="#374151" stroke-width="2"/><!-- Product grid --><rect x="310" y="180" width="240" height="300" rx="20" fill="#0B1220" stroke="#1F2937" stroke-width="2"/><rect x="570" y="180" width="240" height="300" rx="20" fill="#0B1220" stroke="#1F2937" stroke-width="2"/><rect x="830" y="180" width="260" height="300" rx="20" fill="#0B1220" stroke="#1F2937" stroke-width="2"/><!-- Product image areas --><rect x="310" y="180" width="240" height="180" rx="20" fill="#1A1F35"/><rect x="570" y="180" width="240" height="180" rx="20" fill="#1A1F35"/><rect x="830" y="180" width="260" height="180" rx="20" fill="#1A1F35"/><!-- Product image circles (items) --><circle cx="430" cy="270" r="50" fill="#EC4899" fill-opacity="0.15"/><circle cx="430" cy="270" r="35" fill="#EC4899" fill-opacity="0.2"/><circle cx="690" cy="270" r="50" fill="#EC4899" fill-opacity="0.15"/><circle cx="690" cy="270" r="35" fill="#BE185D" fill-opacity="0.25"/><circle cx="960" cy="270" r="50" fill="#EC4899" fill-opacity="0.15"/><circle cx="960" cy="270" r="35" fill="#EC4899" fill-opacity="0.2"/><!-- Wishlist icon --><circle cx="536" cy="200" r="14" fill="#1F2937"/><circle cx="796" cy="200" r="14" fill="#1F2937"/><circle cx="1062" cy="200" r="14" fill="#EC4899" fill-opacity="0.3"/><!-- Product info --><rect x="330" y="380" width="140" height="14" rx="7" fill="#374151"/><rect x="330" y="402" width="80" height="18" rx="9" fill="#EC4899"/><rect x="420" y="403" width="60" height="16" rx="8" fill="#374151"/><!-- Stars --><rect x="330" y="428" width="100" height="10" rx="5" fill="#F59E0B" fill-opacity="0.6"/><!-- Add to cart button --><rect x="330" y="450" width="200" height="36" rx="18" fill="#EC4899"/><!-- Row 2 products --><rect x="590" y="380" width="140" height="14" rx="7" fill="#374151"/><rect x="590" y="402" width="80" height="18" rx="9" fill="#EC4899"/><rect x="590" y="428" width="100" height="10" rx="5" fill="#F59E0B" fill-opacity="0.6"/><rect x="590" y="450" width="200" height="36" rx="18" fill="#EC4899"/><rect x="850" y="380" width="140" height="14" rx="7" fill="#374151"/><rect x="850" y="402" width="80" height="18" rx="9" fill="#EC4899"/><rect x="850" y="428" width="100" height="10" rx="5" fill="#F59E0B" fill-opacity="0.6"/><rect x="850" y="450" width="200" height="36" rx="18" fill="#EC4899"/><!-- Second row of products --><rect x="310" y="510" width="240" height="160" rx="20" fill="#0B1220" stroke="#1F2937" stroke-width="2"/><rect x="570" y="510" width="240" height="160" rx="20" fill="#0B1220" stroke="#1F2937" stroke-width="2"/><rect x="830" y="510" width="260" height="160" rx="20" fill="#0B1220" stroke="#1F2937" stroke-width="2"/><!-- Second row image areas --><rect x="310" y="510" width="240" height="90" rx="20" fill="#1A1F35"/><rect x="570" y="510" width="240" height="90" rx="20" fill="#1A1F35"/><rect x="830" y="510" width="260" height="90" rx="20" fill="#1A1F35"/><!-- Second row circles --><circle cx="430" cy="555" r="30" fill="#EC4899" fill-opacity="0.2"/><circle cx="690" cy="555" r="30" fill="#BE185D" fill-opacity="0.25"/><circle cx="960" cy="555" r="30" fill="#EC4899" fill-opacity="0.2"/><!-- Second row info --><rect x="330" y="615" width="120" height="12" rx="6" fill="#374151"/><rect x="330" y="634" width="70" height="16" rx="8" fill="#EC4899"/><rect x="590" y="615" width="120" height="12" rx="6" fill="#374151"/><rect x="590" y="634" width="70" height="16" rx="8" fill="#EC4899"/><rect x="850" y="615" width="120" height="12" rx="6" fill="#374151"/><rect x="850" y="634" width="70" height="16" rx="8" fill="#EC4899"/><text x="600" y="155" fill="#fff" font-size="38" font-family="Arial" font-weight="700" text-anchor="middle">E-Commerce Store</text><text x="600" y="185" fill="#94A3B8" font-size="20" font-family="Arial" text-anchor="middle">Products • Cart • Checkout</text></svg>
