<svg width="1200" height="800" viewBox="0 0 1200 800" fill="none" xmlns="http://www.w3.org/2000/svg">
  <rect width="1200" height="800" rx="40" fill="#111827"/>
  <circle cx="1050" cy="80" r="250" fill="#7C3AED" fill-opacity="0.25"/>
  <circle cx="150" cy="730" r="220" fill="#6D28D9" fill-opacity="0.2"/>

  <rect x="90" y="90" width="1020" height="620" rx="28" fill="#0F1629" stroke="#1E2A45" stroke-width="4"/>

  <!-- Top nav -->
  <rect x="90" y="90" width="1020" height="56" rx="28" fill="#111827"/>
  <rect x="125" y="109" width="130" height="18" rx="9" fill="#7C3AED"/>
  <rect x="580" y="112" width="60" height="12" rx="6" fill="#374151"/>
  <rect x="660" y="112" width="60" height="12" rx="6" fill="#374151"/>
  <rect x="960" y="107" width="120" height="32" rx="16" fill="#7C3AED"/>

  <!-- Left panel - form inputs -->
  <rect x="120" y="175" width="460" height="500" rx="20" fill="#111827" stroke="#1E2A45" stroke-width="2"/>

  <!-- Panel title -->
  <rect x="150" y="200" width="200" height="18" rx="9" fill="#374151"/>

  <!-- Text input -->
  <rect x="150" y="238" width="120" height="12" rx="6" fill="#4B5563"/>
  <rect x="150" y="258" width="400" height="44" rx="12" fill="#1F2937" stroke="#7C3AED" stroke-width="2"/>
  <rect x="168" y="276" width="140" height="10" rx="5" fill="#374151"/>

  <!-- Email input -->
  <rect x="150" y="318" width="120" height="12" rx="6" fill="#4B5563"/>
  <rect x="150" y="338" width="400" height="44" rx="12" fill="#1F2937" stroke="#1F2937" stroke-width="2"/>
  <rect x="168" y="356" width="100" height="10" rx="5" fill="#2D3748"/>
  <!-- Email icon -->
  <rect x="502" y="352" width="28" height="18" rx="4" fill="#374151"/>

  <!-- Validation error -->
  <rect x="150" y="390" width="180" height="18" rx="9" fill="#EF4444" fill-opacity="0.15" stroke="#EF4444" stroke-width="1"/>
  <rect x="168" y="396" width="120" height="8" rx="4" fill="#EF4444" fill-opacity="0.6"/>

  <!-- Password input with strength -->
  <rect x="150" y="420" width="120" height="12" rx="6" fill="#4B5563"/>
  <rect x="150" y="440" width="400" height="44" rx="12" fill="#1F2937" stroke="#1F2937" stroke-width="2"/>
  <rect x="168" y="458" width="80" height="10" rx="5" fill="#2D3748"/>
  <!-- Eye icon -->
  <circle cx="516" cy="462" r="10" fill="#374151"/>
  <!-- Password strength bars -->
  <rect x="150" y="494" width="90" height="6" rx="3" fill="#EF4444"/>
  <rect x="248" y="494" width="90" height="6" rx="3" fill="#1F2937"/>
  <rect x="346" y="494" width="90" height="6" rx="3" fill="#1F2937"/>
  <rect x="444" y="494" width="106" height="6" rx="3" fill="#1F2937"/>

  <!-- Select dropdown -->
  <rect x="150" y="515" width="120" height="12" rx="6" fill="#4B5563"/>
  <rect x="150" y="535" width="400" height="44" rx="12" fill="#1F2937" stroke="#1F2937" stroke-width="2"/>
  <rect x="168" y="553" width="100" height="10" rx="5" fill="#374151"/>
  <!-- Chevron -->
  <rect x="518" y="550" width="20" height="16" rx="4" fill="#374151"/>

  <!-- Checkboxes group -->
  <rect x="150" y="598" width="120" height="12" rx="6" fill="#4B5563"/>
  <rect x="150" y="622" width="18" height="18" rx="5" fill="#7C3AED"/>
  <rect x="178" y="626" width="120" height="10" rx="5" fill="#374151"/>
  <rect x="150" y="648" width="18" height="18" rx="5" fill="#1F2937" stroke="#374151" stroke-width="2"/>
  <rect x="178" y="652" width="140" height="10" rx="5" fill="#374151"/>

  <!-- Submit button -->
  <rect x="150" y="680" width="400" height="46" rx="23" fill="#7C3AED"/>
  <rect x="290" y="698" width="120" height="12" rx="6" fill="#fff" fill-opacity="0.6"/>

  <!-- Right panel - more form components -->
  <rect x="610" y="175" width="460" height="240" rx="20" fill="#111827" stroke="#1E2A45" stroke-width="2"/>

  <!-- Panel title -->
  <rect x="640" y="200" width="180" height="18" rx="9" fill="#374151"/>

  <!-- Radio buttons -->
  <rect x="640" y="238" width="120" height="12" rx="6" fill="#4B5563"/>
  <circle cx="659" cy="272" r="10" fill="#7C3AED" fill-opacity="0.2" stroke="#7C3AED" stroke-width="2"/>
  <circle cx="659" cy="272" r="5" fill="#7C3AED"/>
  <rect x="678" y="266" width="100" height="12" rx="6" fill="#374151"/>
  <circle cx="659" cy="302" r="10" fill="#1F2937" stroke="#374151" stroke-width="2"/>
  <rect x="678" y="296" width="120" height="12" rx="6" fill="#374151"/>
  <circle cx="659" cy="332" r="10" fill="#1F2937" stroke="#374151" stroke-width="2"/>
  <rect x="678" y="326" width="90" height="12" rx="6" fill="#374151"/>

  <!-- Toggle switches -->
  <rect x="640" y="360" width="120" height="12" rx="6" fill="#4B5563"/>
  <!-- Toggle on -->
  <rect x="640" y="382" width="54" height="28" rx="14" fill="#7C3AED"/>
  <circle cx="680" cy="396" r="11" fill="#fff"/>
  <rect x="704" y="388" width="120" height="12" rx="6" fill="#374151"/>
  <!-- Toggle off -->
  <rect x="640" y="718" width="54" height="28" rx="14" fill="#374151"/>
  <circle cx="654" cy="732" r="11" fill="#fff"/>

  <!-- Slider -->
  <rect x="610" y="438" width="460" height="100" rx="20" fill="#111827" stroke="#1E2A45" stroke-width="2"/>
  <rect x="640" y="458" width="120" height="12" rx="6" fill="#4B5563"/>
  <rect x="640" y="484" width="400" height="8" rx="4" fill="#1F2937"/>
  <rect x="640" y="484" width="240" height="8" rx="4" fill="#7C3AED"/>
  <circle cx="880" cy="488" r="14" fill="#7C3AED" stroke="#111827" stroke-width="3"/>
  <rect x="640" y="506" width="60" height="14" rx="7" fill="#374151"/>
  <rect x="990" y="506" width="50" height="14" rx="7" fill="#374151"/>

  <!-- File upload area -->
  <rect x="610" y="558" width="460" height="117" rx="20" fill="#111827" stroke="#7C3AED" stroke-width="2" stroke-dasharray="6 4"/>
  <rect x="770" y="580" width="100" height="30" rx="8" fill="#7C3AED" fill-opacity="0.2"/>
  <rect x="780" y="586" width="80" height="18" rx="9" fill="#7C3AED" fill-opacity="0.4"/>
  <rect x="730" y="622" width="200" height="12" rx="6" fill="#374151"/>
  <rect x="760" y="642" width="140" height="10" rx="5" fill="#4B5563"/>

  <text x="600" y="155" fill="#fff" font-size="38" font-family="Arial" font-weight="700" text-anchor="middle">Form Components</text>
  <text x="600" y="183" fill="#94A3B8" font-size="20" font-family="Arial" text-anchor="middle">Inputs • Validation • Controls</text>
</svg>
